<svg xmlns="http://www.w3.org/2000/svg" xmlns:xlink="http://www.w3.org/1999/xlink" width="800" height="347.36"><rect width="800" height="347.36" rx="0" ry="0" class="a"/><svg height="347.36" viewBox="0 0 80 34.736" width="800" xmlns="http://www.w3.org/2000/svg" xmlns:xlink="http://www.w3.org/1999/xlink"><style>@keyframes m{0%{transform:translateX(0)}.44%{transform:translateX(-80px)}.45%{transform:translateX(-160px)}1.79%{transform:translateX(-240px)}2.38%{transform:translateX(-320px)}2.86%{transform:translateX(-400px)}3.16%{transform:translateX(-480px)}3.65%{transform:translateX(-560px)}4.18%{transform:translateX(-640px)}4.74%{transform:translateX(-720px)}4.98%{transform:translateX(-800px)}5.99%{transform:translateX(-880px)}6.44%{transform:translateX(-960px)}6.82%{transform:translateX(-1040px)}7.73%{transform:translateX(-1120px)}8.13%{transform:translateX(-1200px)}8.41%{transform:translateX(-1280px)}8.67%{transform:translateX(-1360px)}8.94%{transform:translateX(-1440px)}9.23%{transform:translateX(-1520px)}9.69%{transform:translateX(-1600px)}10.59%{transform:translateX(-1680px)}11.56%{transform:translateX(-1760px)}11.83%{transform:translateX(-1840px)}12.13%{transform:translateX(-1920px)}12.4%{transform:translateX(-2000px)}13.78%{transform:translateX(-2080px)}14.51%{transform:translateX(-2160px)}14.81%{transform:translateX(-2240px)}15.15%{transform:translateX(-2320px)}15.81%{transform:translateX(-2400px)}16.2%{transform:translateX(-2480px)}16.51%{transform:translateX(-2560px)}17.32%{transform:translateX(-2640px)}17.68%{transform:translateX(-2720px)}18.23%{transform:translateX(-2800px)}18.78%{transform:translateX(-2880px)}19.29%{transform:translateX(-2960px)}20.01%{transform:translateX(-3040px)}20.41%{transform:translateX(-3120px)}21.04%{transform:translateX(-3200px)}21.6%{transform:translateX(-3280px)}22.65%{transform:translateX(-3360px)}45.54%{transform:translateX(-3440px)}45.55%{transform:translateX(-3760px)}45.57%{transform:translateX(-3840px)}48.93%{transform:translateX(-3920px)}52.43%{transform:translateX(-4080px)}74.08%{transform:translateX(-4320px)}to{transform:translateX(-4400px)}}.a{fill:#282d35}.c{fill:#b9c0cb}.c,.e,.f,.i,.j{white-space:pre}.e{fill:#b9c0cb;font-weight:700}.f,.i,.j{fill:#a8cc8c}.i,.j{fill:#d290e4}.j{fill:#a8cc8c;font-weight:700}</style><g font-family="Monaco,Consolas,Menlo,'Bitstream Vera Sans Mono','Powerline Symbols',monospace" font-size="1.67"><defs><symbol id="1"><text y="1.67" class="c">$</text></symbol><symbol id="2"><text y="1.67" class="c">$</text><text x="2.004" y="1.67" class="c">curl</text></symbol><symbol id="3"><text y="1.67" class="c">$</text><text x="2.004" y="1.67" class="c">curl</text><text x="7.014" y="1.67" class="c">-sfLS</text></symbol><symbol id="4"><text y="1.67" class="c">$</text><text x="2.004" y="1.67" class="c">curl</text><text x="7.014" y="1.67" class="c">-sfLS</text><text x="13.026" y="1.67" class="c">install-node.vercel.app</text></symbol><symbol id="5"><text y="1.67" class="c">$</text><text x="2.004" y="1.67" class="c">curl</text><text x="7.014" y="1.67" class="c">-sfLS</text><text x="13.026" y="1.67" class="c">install-node.vercel.app</text><text x="37.074" y="1.67" class="c">|</text></symbol><symbol id="6"><text y="1.67" class="c">$</text><text x="2.004" y="1.67" class="c">curl</text><text x="7.014" y="1.67" class="c">-sfLS</text><text x="13.026" y="1.67" class="c">install-node.vercel.app</text><text x="37.074" y="1.67" class="c">|</text><text x="39.078" y="1.67" class="c">sh</text></symbol><symbol id="7"><text x="2.004" y="1.67" style="white-space:pre" fill="#b9c0cb" text-decoration="underline">Configuration</text></symbol><symbol id="8"><text y="1.67" class="e">&gt;</text><text x="2.004" y="1.67" class="e">Version</text><text x="9.018" y="1.67" class="c">:</text><text x="12.024" y="1.67" class="f">v15.14.0</text><text x="21.042" y="1.67" class="c">(resolved</text><text x="31.062" y="1.67" class="c">from</text><text x="36.072" y="1.67" style="white-space:pre" fill="#66c2cd">latest</text><text x="42.084" y="1.67" class="c">)</text></symbol><symbol id="9"><text y="1.67" class="e">&gt;</text><text x="2.004" y="1.67" class="e">Prefix</text><text x="8.016" y="1.67" class="c">:</text><text x="12.024" y="1.67" class="f">/usr/local</text></symbol><symbol id="10"><text y="1.67" class="e">&gt;</text><text x="2.004" y="1.67" class="e">Platform</text><text x="10.02" y="1.67" class="c">:</text><text x="12.024" y="1.67" class="f">darwin</text></symbol><symbol id="11"><text y="1.67" class="e">&gt;</text><text x="2.004" y="1.67" class="e">Arch</text><text x="6.012" y="1.67" class="c">:</text><text x="12.024" y="1.67" class="f">x64</text></symbol><symbol id="12"><text y="1.67" class="e">&gt;</text><text x="2.004" y="1.67" class="c">Tarball</text><text x="10.02" y="1.67" class="c">URL:</text><text x="15.03" y="1.67" style="white-space:pre" fill="#71bef2" text-decoration="underline">https://nodejs.org/dist/v15.14.0/node-v15.14.0-darwin-x64.tar.gz</text></symbol><symbol id="13"><text y="1.67" class="i">?</text><text x="2.004" y="1.67" class="c">Install</text><text x="10.02" y="1.67" class="c">Node.js</text><text x="18.036" y="1.67" class="f">v15.14.0</text><text x="27.054" y="1.67" class="c">to</text><text x="30.06" y="1.67" class="j">/usr/local</text><text x="40.08" y="1.67" class="c">?</text><text x="42.084" y="1.67" class="e">[yN]</text><text x="47.094" y="1.67" class="c">y</text></symbol><symbol id="14"><text y="1.67" class="e">&gt;</text><text x="2.004" y="1.67" class="c">Installing</text><text x="13.026" y="1.67" class="c">Node.js,</text><text x="22.044" y="1.67" class="c">please</text><text x="29.058" y="1.67" class="c">wait…</text></symbol><symbol id="15"><text y="1.67" class="f">✓</text><text x="2.004" y="1.67" class="c">Done</text></symbol><symbol id="a"><path fill="transparent" d="M0 0h80v16H0z"/></symbol><symbol id="b"><path fill="#6f7683" d="M0 0h1.102v2.171H0z"/></symbol></defs><path class="a" d="M0 0h80v34.736H0z"/><g style="animation-duration:22.109155s;animation-iteration-count:infinite;animation-name:m;animation-timing-function:steps(1,end)"><svg width="4480"><svg><use xlink:href="#a"/><use xlink:href="#b" x="-.004"/></svg><svg x="80"><use xlink:href="#a"/><use xlink:href="#b" x="-.004"/></svg><svg x="160"><use xlink:href="#a"/><use xlink:href="#b" x="1.996"/><use xlink:href="#1"/></svg><svg x="240"><use xlink:href="#a"/><use xlink:href="#b" x="2.996"/><text y="1.67" class="c">$</text><text x="2.004" y="1.67" class="c">c</text></svg><svg x="320"><use xlink:href="#a"/><use xlink:href="#b" x="3.996"/><text y="1.67" class="c">$</text><text x="2.004" y="1.67" class="c">cu</text></svg><svg x="400"><use xlink:href="#a"/><use xlink:href="#b" x="4.996"/><text y="1.67" class="c">$</text><text x="2.004" y="1.67" class="c">cur</text></svg><svg x="480"><use xlink:href="#a"/><use xlink:href="#b" x="5.996"/><use xlink:href="#2"/></svg><svg x="560"><use xlink:href="#a"/><use xlink:href="#b" x="6.996"/><use xlink:href="#2"/></svg><svg x="640"><use xlink:href="#a"/><use xlink:href="#b" x="7.996"/><text y="1.67" class="c">$</text><text x="2.004" y="1.67" class="c">curl</text><text x="7.014" y="1.67" class="c">-</text></svg><svg x="720"><use xlink:href="#a"/><use xlink:href="#b" x="8.996"/><text y="1.67" class="c">$</text><text x="2.004" y="1.67" class="c">curl</text><text x="7.014" y="1.67" class="c">-s</text></svg><svg x="800"><use xlink:href="#a"/><use xlink:href="#b" x="9.996"/><text y="1.67" class="c">$</text><text x="2.004" y="1.67" class="c">curl</text><text x="7.014" y="1.67" class="c">-sf</text></svg><svg x="880"><use xlink:href="#a"/><use xlink:href="#b" x="10.996"/><text y="1.67" class="c">$</text><text x="2.004" y="1.67" class="c">curl</text><text x="7.014" y="1.67" class="c">-sfL</text></svg><svg x="960"><use xlink:href="#a"/><use xlink:href="#b" x="11.996"/><use xlink:href="#3"/></svg><svg x="1040"><use xlink:href="#a"/><use xlink:href="#b" x="12.996"/><use xlink:href="#3"/></svg><svg x="1120"><use xlink:href="#a"/><use xlink:href="#b" x="13.996"/><text y="1.67" class="c">$</text><text x="2.004" y="1.67" class="c">curl</text><text x="7.014" y="1.67" class="c">-sfLS</text><text x="13.026" y="1.67" class="c">i</text></svg><svg x="1200"><use xlink:href="#a"/><use xlink:href="#b" x="14.996"/><text y="1.67" class="c">$</text><text x="2.004" y="1.67" class="c">curl</text><text x="7.014" y="1.67" class="c">-sfLS</text><text x="13.026" y="1.67" class="c">in</text></svg><svg x="1280"><use xlink:href="#a"/><use xlink:href="#b" x="15.996"/><text y="1.67" class="c">$</text><text x="2.004" y="1.67" class="c">curl</text><text x="7.014" y="1.67" class="c">-sfLS</text><text x="13.026" y="1.67" class="c">ins</text></svg><svg x="1360"><use xlink:href="#a"/><use xlink:href="#b" x="16.996"/><text y="1.67" class="c">$</text><text x="2.004" y="1.67" class="c">curl</text><text x="7.014" y="1.67" class="c">-sfLS</text><text x="13.026" y="1.67" class="c">inst</text></svg><svg x="1440"><use xlink:href="#a"/><use xlink:href="#b" x="17.996"/><text y="1.67" class="c">$</text><text x="2.004" y="1.67" class="c">curl</text><text x="7.014" y="1.67" class="c">-sfLS</text><text x="13.026" y="1.67" class="c">insta</text></svg><svg x="1520"><use xlink:href="#a"/><use xlink:href="#b" x="18.996"/><text y="1.67" class="c">$</text><text x="2.004" y="1.67" class="c">curl</text><text x="7.014" y="1.67" class="c">-sfLS</text><text x="13.026" y="1.67" class="c">instal</text></svg><svg x="1600"><use xlink:href="#a"/><use xlink:href="#b" x="19.996"/><text y="1.67" class="c">$</text><text x="2.004" y="1.67" class="c">curl</text><text x="7.014" y="1.67" class="c">-sfLS</text><text x="13.026" y="1.67" class="c">install</text></svg><svg x="1680"><use xlink:href="#a"/><use xlink:href="#b" x="20.996"/><text y="1.67" class="c">$</text><text x="2.004" y="1.67" class="c">curl</text><text x="7.014" y="1.67" class="c">-sfLS</text><text x="13.026" y="1.67" class="c">install-</text></svg><svg x="1760"><use xlink:href="#a"/><use xlink:href="#b" x="21.996"/><text y="1.67" class="c">$</text><text x="2.004" y="1.67" class="c">curl</text><text x="7.014" y="1.67" class="c">-sfLS</text><text x="13.026" y="1.67" class="c">install-n</text></svg><svg x="1840"><use xlink:href="#a"/><use xlink:href="#b" x="22.996"/><text y="1.67" class="c">$</text><text x="2.004" y="1.67" class="c">curl</text><text x="7.014" y="1.67" class="c">-sfLS</text><text x="13.026" y="1.67" class="c">install-no</text></svg><svg x="1920"><use xlink:href="#a"/><use xlink:href="#b" x="23.996"/><text y="1.67" class="c">$</text><text x="2.004" y="1.67" class="c">curl</text><text x="7.014" y="1.67" class="c">-sfLS</text><text x="13.026" y="1.67" class="c">install-nod</text></svg><svg x="2000"><use xlink:href="#a"/><use xlink:href="#b" x="24.996"/><text y="1.67" class="c">$</text><text x="2.004" y="1.67" class="c">curl</text><text x="7.014" y="1.67" class="c">-sfLS</text><text x="13.026" y="1.67" class="c">install-node</text></svg><svg x="2080"><use xlink:href="#a"/><use xlink:href="#b" x="25.996"/><text y="1.67" class="c">$</text><text x="2.004" y="1.67" class="c">curl</text><text x="7.014" y="1.67" class="c">-sfLS</text><text x="13.026" y="1.67" class="c">install-node.</text></svg><svg x="2160"><use xlink:href="#a"/><use xlink:href="#b" x="26.996"/><text y="1.67" class="c">$</text><text x="2.004" y="1.67" class="c">curl</text><text x="7.014" y="1.67" class="c">-sfLS</text><text x="13.026" y="1.67" class="c">install-node.v</text></svg><svg x="2240"><use xlink:href="#a"/><use xlink:href="#b" x="27.996"/><text y="1.67" class="c">$</text><text x="2.004" y="1.67" class="c">curl</text><text x="7.014" y="1.67" class="c">-sfLS</text><text x="13.026" y="1.67" class="c">install-node.ve</text></svg><svg x="2320"><use xlink:href="#a"/><use xlink:href="#b" x="28.996"/><text y="1.67" class="c">$</text><text x="2.004" y="1.67" class="c">curl</text><text x="7.014" y="1.67" class="c">-sfLS</text><text x="13.026" y="1.67" class="c">install-node.ver</text></svg><svg x="2400"><use xlink:href="#a"/><use xlink:href="#b" x="29.996"/><text y="1.67" class="c">$</text><text x="2.004" y="1.67" class="c">curl</text><text x="7.014" y="1.67" class="c">-sfLS</text><text x="13.026" y="1.67" class="c">install-node.verc</text></svg><svg x="2480"><use xlink:href="#a"/><use xlink:href="#b" x="30.996"/><text y="1.67" class="c">$</text><text x="2.004" y="1.67" class="c">curl</text><text x="7.014" y="1.67" class="c">-sfLS</text><text x="13.026" y="1.67" class="c">install-node.verce</text></svg><svg x="2560"><use xlink:href="#a"/><use xlink:href="#b" x="31.996"/><text y="1.67" class="c">$</text><text x="2.004" y="1.67" class="c">curl</text><text x="7.014" y="1.67" class="c">-sfLS</text><text x="13.026" y="1.67" class="c">install-node.vercel</text></svg><svg x="2640"><use xlink:href="#a"/><use xlink:href="#b" x="32.996"/><text y="1.67" class="c">$</text><text x="2.004" y="1.67" class="c">curl</text><text x="7.014" y="1.67" class="c">-sfLS</text><text x="13.026" y="1.67" class="c">install-node.vercel.</text></svg><svg x="2720"><use xlink:href="#a"/><use xlink:href="#b" x="33.996"/><text y="1.67" class="c">$</text><text x="2.004" y="1.67" class="c">curl</text><text x="7.014" y="1.67" class="c">-sfLS</text><text x="13.026" y="1.67" class="c">install-node.vercel.a</text></svg><svg x="2800"><use xlink:href="#a"/><use xlink:href="#b" x="34.996"/><text y="1.67" class="c">$</text><text x="2.004" y="1.67" class="c">curl</text><text x="7.014" y="1.67" class="c">-sfLS</text><text x="13.026" y="1.67" class="c">install-node.vercel.ap</text></svg><svg x="2880"><use xlink:href="#a"/><use xlink:href="#b" x="35.996"/><use xlink:href="#4"/></svg><svg x="2960"><use xlink:href="#a"/><use xlink:href="#b" x="36.996"/><use xlink:href="#4"/></svg><svg x="3040"><use xlink:href="#a"/><use xlink:href="#b" x="37.996"/><use xlink:href="#5"/></svg><svg x="3120"><use xlink:href="#a"/><use xlink:href="#b" x="38.996"/><use xlink:href="#5"/></svg><svg x="3200"><use xlink:href="#a"/><use xlink:href="#b" x="39.996"/><text y="1.67" class="c">$</text><text x="2.004" y="1.67" class="c">curl</text><text x="7.014" y="1.67" class="c">-sfLS</text><text x="13.026" y="1.67" class="c">install-node.vercel.app</text><text x="37.074" y="1.67" class="c">|</text><text x="39.078" y="1.67" class="c">s</text></svg><svg x="3280"><use xlink:href="#a"/><use xlink:href="#b" x="40.996"/><use xlink:href="#6"/></svg><svg x="3360"><use xlink:href="#a"/><use xlink:href="#b" x="-.004" y="2.146"/><use xlink:href="#6"/></svg><svg x="3440"><use xlink:href="#a"/><use xlink:href="#b" x="-.004" y="4.317"/><use xlink:href="#6"/><use xlink:href="#7" y="2.171"/></svg><svg x="3520"><use xlink:href="#a"/><use xlink:href="#b" x="-.004" y="8.659"/><use xlink:href="#6"/><use xlink:href="#7" y="2.171"/><use xlink:href="#8" y="4.342"/><use xlink:href="#9" y="6.513"/></svg><svg x="3600"><use xlink:href="#a"/><use xlink:href="#b" x="-.004" y="13.001"/><use xlink:href="#6"/><use xlink:href="#7" y="2.171"/><use xlink:href="#8" y="4.342"/><use xlink:href="#9" y="6.513"/><use xlink:href="#10" y="8.684"/><use xlink:href="#11" y="10.855"/></svg><svg x="3680"><use xlink:href="#a"/><use xlink:href="#b" x="-.004" y="15.172"/><use xlink:href="#6"/><use xlink:href="#7" y="2.171"/><use xlink:href="#8" y="4.342"/><use xlink:href="#9" y="6.513"/><use xlink:href="#10" y="8.684"/><use xlink:href="#11" y="10.855"/></svg><svg x="3760"><use xlink:href="#a"/><use xlink:href="#b" x="-.004" y="17.343"/><use xlink:href="#6"/><use xlink:href="#7" y="2.171"/><use xlink:href="#8" y="4.342"/><use xlink:href="#9" y="6.513"/><use xlink:href="#10" y="8.684"/><use xlink:href="#11" y="10.855"/><use xlink:href="#12" y="15.197"/></svg><svg x="3840"><use xlink:href="#a"/><use xlink:href="#b" x="46.996" y="17.343"/><use xlink:href="#6"/><use xlink:href="#7" y="2.171"/><use xlink:href="#8" y="4.342"/><use xlink:href="#9" y="6.513"/><use xlink:href="#10" y="8.684"/><use xlink:href="#11" y="10.855"/><use xlink:href="#12" y="15.197"/><text y="19.038" class="i">?</text><text x="2.004" y="19.038" class="c">Install</text><text x="10.02" y="19.038" class="c">Node.js</text><text x="18.036" y="19.038" class="f">v15.14.0</text><text x="27.054" y="19.038" class="c">to</text><text x="30.06" y="19.038" class="j">/usr/local</text><text x="40.08" y="19.038" class="c">?</text><text x="42.084" y="19.038" class="e">[yN]</text></svg><svg x="3920"><use xlink:href="#a"/><use xlink:href="#b" x="47.996" y="17.343"/><use xlink:href="#6"/><use xlink:href="#7" y="2.171"/><use xlink:href="#8" y="4.342"/><use xlink:href="#9" y="6.513"/><use xlink:href="#10" y="8.684"/><use xlink:href="#11" y="10.855"/><use xlink:href="#12" y="15.197"/><use xlink:href="#13" y="17.368"/></svg><svg x="4000"><use xlink:href="#a"/><use xlink:href="#b" x="-.004" y="19.514"/><use xlink:href="#6"/><use xlink:href="#7" y="2.171"/><use xlink:href="#8" y="4.342"/><use xlink:href="#9" y="6.513"/><use xlink:href="#10" y="8.684"/><use xlink:href="#11" y="10.855"/><use xlink:href="#12" y="15.197"/><use xlink:href="#13" y="17.368"/></svg><svg x="4080"><use xlink:href="#a"/><use xlink:href="#b" x="-.004" y="21.685"/><use xlink:href="#6"/><use xlink:href="#7" y="2.171"/><use xlink:href="#8" y="4.342"/><use xlink:href="#9" y="6.513"/><use xlink:href="#10" y="8.684"/><use xlink:href="#11" y="10.855"/><use xlink:href="#12" y="15.197"/><use xlink:href="#13" y="17.368"/><use xlink:href="#14" y="19.539"/></svg><svg x="4160"><use xlink:href="#a"/><use xlink:href="#b" x="-.004" y="23.856"/><use xlink:href="#6"/><use xlink:href="#7" y="2.171"/><use xlink:href="#8" y="4.342"/><use xlink:href="#9" y="6.513"/><use xlink:href="#10" y="8.684"/><use xlink:href="#11" y="10.855"/><use xlink:href="#12" y="15.197"/><use xlink:href="#13" y="17.368"/><use xlink:href="#14" y="19.539"/><use xlink:href="#15" y="21.71"/></svg><svg x="4240"><use xlink:href="#a"/><use xlink:href="#b" x="-.004" y="23.856"/><use xlink:href="#6"/><use xlink:href="#7" y="2.171"/><use xlink:href="#8" y="4.342"/><use xlink:href="#9" y="6.513"/><use xlink:href="#10" y="8.684"/><use xlink:href="#11" y="10.855"/><use xlink:href="#12" y="15.197"/><use xlink:href="#13" y="17.368"/><use xlink:href="#14" y="19.539"/><use xlink:href="#15" y="21.71"/></svg><svg x="4320"><use xlink:href="#a"/><use xlink:href="#b" x="1.996" y="23.856"/><use xlink:href="#6"/><use xlink:href="#7" y="2.171"/><use xlink:href="#8" y="4.342"/><use xlink:href="#9" y="6.513"/><use xlink:href="#10" y="8.684"/><use xlink:href="#11" y="10.855"/><use xlink:href="#12" y="15.197"/><use xlink:href="#13" y="17.368"/><use xlink:href="#14" y="19.539"/><use xlink:href="#15" y="21.71"/><use xlink:href="#1" y="23.881"/></svg><svg x="4400"><use xlink:href="#a"/><use xlink:href="#b" x="-.004" y="26.027"/><use xlink:href="#6"/><use xlink:href="#7" y="2.171"/><use xlink:href="#8" y="4.342"/><use xlink:href="#9" y="6.513"/><use xlink:href="#10" y="8.684"/><use xlink:href="#11" y="10.855"/><use xlink:href="#12" y="15.197"/><use xlink:href="#13" y="17.368"/><use xlink:href="#14" y="19.539"/><use xlink:href="#15" y="21.71"/><use xlink:href="#1" y="23.881"/></svg></svg></g></g></svg></svg>